<mxfile host="app.diagrams.net" modified="2023-05-01T09:04:02.057Z" agent="Mozilla/5.0 (Windows NT 10.0; Win64; x64) AppleWebKit/537.36 (KHTML, like Gecko) Chrome/112.0.0.0 Safari/537.36 Edg/112.0.1722.64" version="21.2.3" etag="Qs4hV8panrOAC1Kmcr7S" type="github">
  <diagram name="第 1 页" id="1pbirYVuTmxY0LQ_dK6s">
    <mxGraphModel>
      <root>
        <mxCell id="0" />
        <mxCell id="1" parent="0" />
      </root>
    </mxGraphModel>
  </diagram>
</mxfile>
